<svg id="svg" xmlns="http://www.w3.org/2000/svg" xmlns:xlink="http://www.w3.org/1999/xlink" width="400" height="400" viewBox="0, 0, 400,400"><g id="svgg"><path id="path0" d="M398.527 83.802 C 398.456 83.917,398.445 84.057,398.503 84.115 C 398.643 84.254,399.023 84.008,399.023 83.778 C 399.023 83.528,398.686 83.545,398.527 83.802 M23.063 86.202 C 23.108 86.240,62.983 121.705,111.674 165.013 L 200.204 243.755 211.576 233.637 C 217.831 228.073,257.622 192.683,300.000 154.994 C 342.378 117.305,377.134 86.393,377.236 86.301 C 377.340 86.207,299.221 86.133,200.202 86.133 C 102.731 86.133,23.018 86.164,23.063 86.202 " stroke="none" fill="#3c53b3" fill-rule="evenodd"></path><path id="path1" d="M11.775 59.913 C 7.589 60.863,3.346 64.980,2.067 69.330 C 1.780 70.307,1.753 81.532,1.753 200.210 L 1.752 330.023 2.227 331.429 C 3.467 335.093,6.978 338.515,10.872 339.855 C 12.633 340.461,387.758 340.461,389.519 339.855 C 393.870 338.358,397.728 334.228,398.492 330.248 C 398.679 329.272,398.709 302.597,398.633 206.543 C 398.579 139.189,398.596 81.226,398.669 77.734 C 398.776 72.682,398.749 71.118,398.534 70.070 C 397.666 65.837,393.806 61.605,389.502 60.169 L 388.281 59.761 200.567 59.715 C 50.792 59.677,12.635 59.717,11.775 59.913 M377.236 86.301 C 377.134 86.393,342.378 117.305,300.000 154.994 C 257.622 192.683,217.831 228.073,211.576 233.637 L 200.204 243.755 111.674 165.013 C 62.983 121.705,23.108 86.240,23.063 86.202 C 23.018 86.164,102.731 86.133,200.202 86.133 C 299.221 86.133,377.340 86.207,377.236 86.301 M112.257 180.609 L 196.487 245.117 200.050 245.116 L 203.613 245.115 288.671 180.093 C 335.453 144.330,373.751 115.092,373.778 115.119 C 373.844 115.185,378.711 315.692,378.711 318.370 L 378.711 320.508 200.195 320.508 L 21.680 320.508 21.680 318.692 C 21.680 317.693,22.778 271.753,24.121 216.602 C 25.464 161.451,26.563 116.027,26.563 115.660 L 26.563 114.993 27.295 115.547 C 27.698 115.852,65.931 145.130,112.257 180.609 " stroke="none" fill="#343434" fill-rule="evenodd"></path><path id="path2" d="M26.681 117.432 C 26.618 118.533,25.513 163.467,24.225 217.285 C 22.938 271.104,21.831 316.301,21.766 317.725 L 21.648 320.313 200.180 320.313 L 378.712 320.312 378.590 316.064 C 378.522 313.728,377.398 267.678,376.092 213.730 C 374.786 159.783,373.662 115.589,373.596 115.523 C 373.529 115.456,335.300 144.586,288.642 180.256 L 203.809 245.110 200.059 245.114 L 196.309 245.117 111.646 180.273 C 65.081 144.609,26.941 115.430,26.889 115.430 C 26.838 115.430,26.744 116.331,26.681 117.432 " stroke="none" fill="#f34434" fill-rule="evenodd"></path><path id="path3" d="M373.892 120.410 C 373.893 121.162,373.928 121.446,373.971 121.041 C 374.013 120.635,374.012 120.020,373.969 119.673 C 373.926 119.327,373.891 119.658,373.892 120.410 M26.430 121.484 C 26.430 122.183,26.465 122.468,26.508 122.119 C 26.552 121.770,26.552 121.199,26.508 120.850 C 26.465 120.500,26.430 120.786,26.430 121.484 M374.088 128.418 C 374.088 129.170,374.124 129.454,374.166 129.048 C 374.208 128.643,374.208 128.028,374.164 127.681 C 374.121 127.334,374.087 127.666,374.088 128.418 M26.236 129.590 C 26.237 130.342,26.272 130.625,26.314 130.220 C 26.357 129.815,26.356 129.200,26.313 128.853 C 26.270 128.506,26.235 128.838,26.236 129.590 M374.281 136.523 C 374.281 137.222,374.317 137.507,374.360 137.158 C 374.403 136.809,374.403 136.238,374.360 135.889 C 374.317 135.540,374.281 135.825,374.281 136.523 M26.041 137.598 C 26.042 138.350,26.077 138.633,26.119 138.228 C 26.161 137.823,26.161 137.208,26.118 136.861 C 26.074 136.514,26.040 136.846,26.041 137.598 M374.478 144.629 C 374.479 145.381,374.514 145.665,374.557 145.259 C 374.599 144.854,374.598 144.239,374.555 143.892 C 374.512 143.545,374.477 143.877,374.478 144.629 M25.845 145.605 C 25.846 146.357,25.882 146.641,25.924 146.236 C 25.966 145.831,25.965 145.215,25.922 144.869 C 25.879 144.522,25.844 144.854,25.845 145.605 M374.673 152.637 C 374.674 153.389,374.710 153.672,374.752 153.267 C 374.794 152.862,374.793 152.247,374.750 151.900 C 374.707 151.553,374.673 151.885,374.673 152.637 M25.650 153.613 C 25.651 154.365,25.686 154.649,25.728 154.244 C 25.771 153.838,25.770 153.223,25.727 152.877 C 25.684 152.530,25.649 152.861,25.650 153.613 M374.869 160.645 C 374.870 161.396,374.905 161.680,374.947 161.275 C 374.990 160.870,374.989 160.254,374.946 159.908 C 374.903 159.561,374.868 159.893,374.869 160.645 M25.455 161.621 C 25.456 162.373,25.491 162.657,25.533 162.252 C 25.575 161.846,25.575 161.231,25.532 160.884 C 25.488 160.538,25.454 160.869,25.455 161.621 M375.064 168.652 C 375.065 169.404,375.100 169.688,375.143 169.283 C 375.185 168.878,375.184 168.262,375.141 167.916 C 375.098 167.569,375.063 167.900,375.064 168.652 M25.259 169.629 C 25.260 170.381,25.296 170.665,25.338 170.259 C 25.380 169.854,25.379 169.239,25.336 168.892 C 25.293 168.545,25.259 168.877,25.259 169.629 M375.258 176.758 C 375.258 177.456,375.293 177.742,375.337 177.393 C 375.380 177.043,375.380 176.472,375.337 176.123 C 375.293 175.774,375.258 176.060,375.258 176.758 M25.064 177.637 C 25.065 178.389,25.100 178.672,25.143 178.267 C 25.185 177.862,25.184 177.247,25.141 176.900 C 25.098 176.553,25.063 176.885,25.064 177.637 M375.455 184.863 C 375.456 185.615,375.491 185.899,375.533 185.494 C 375.575 185.088,375.575 184.473,375.532 184.127 C 375.488 183.780,375.454 184.111,375.455 184.863 M24.867 185.742 C 24.867 186.440,24.903 186.726,24.946 186.377 C 24.989 186.028,24.989 185.457,24.946 185.107 C 24.903 184.758,24.867 185.044,24.867 185.742 M375.650 192.871 C 375.651 193.623,375.686 193.907,375.728 193.502 C 375.771 193.096,375.770 192.481,375.727 192.134 C 375.684 191.788,375.649 192.119,375.650 192.871 M24.672 193.750 C 24.672 194.448,24.707 194.734,24.751 194.385 C 24.794 194.036,24.794 193.464,24.751 193.115 C 24.707 192.766,24.672 193.052,24.672 193.750 M375.845 200.879 C 375.846 201.631,375.882 201.915,375.924 201.509 C 375.966 201.104,375.965 200.489,375.922 200.142 C 375.879 199.795,375.844 200.127,375.845 200.879 M24.478 201.855 C 24.479 202.607,24.514 202.891,24.557 202.486 C 24.599 202.081,24.598 201.465,24.555 201.119 C 24.512 200.772,24.477 201.104,24.478 201.855 M376.041 208.887 C 376.042 209.639,376.077 209.922,376.119 209.517 C 376.161 209.112,376.161 208.497,376.118 208.150 C 376.074 207.803,376.040 208.135,376.041 208.887 M24.283 209.863 C 24.284 210.615,24.319 210.899,24.361 210.494 C 24.404 210.088,24.403 209.473,24.360 209.127 C 24.317 208.780,24.282 209.111,24.283 209.863 M376.234 216.992 C 376.234 217.690,376.270 217.976,376.313 217.627 C 376.356 217.278,376.356 216.707,376.313 216.357 C 376.270 216.008,376.234 216.294,376.234 216.992 M24.088 217.871 C 24.088 218.623,24.124 218.907,24.166 218.502 C 24.208 218.096,24.208 217.481,24.164 217.134 C 24.121 216.788,24.087 217.119,24.088 217.871 M376.431 225.098 C 376.432 225.850,376.467 226.133,376.510 225.728 C 376.552 225.323,376.551 224.708,376.508 224.361 C 376.465 224.014,376.430 224.346,376.431 225.098 M23.892 225.879 C 23.893 226.631,23.928 226.915,23.971 226.509 C 24.013 226.104,24.012 225.489,23.969 225.142 C 23.926 224.795,23.891 225.127,23.892 225.879 M376.627 233.105 C 376.627 233.857,376.663 234.141,376.705 233.736 C 376.747 233.331,376.747 232.715,376.703 232.369 C 376.660 232.022,376.626 232.354,376.627 233.105 M23.697 233.887 C 23.698 234.639,23.733 234.922,23.775 234.517 C 23.818 234.112,23.817 233.497,23.774 233.150 C 23.731 232.803,23.696 233.135,23.697 233.887 M376.822 241.113 C 376.823 241.865,376.858 242.149,376.900 241.744 C 376.943 241.338,376.942 240.723,376.899 240.377 C 376.856 240.030,376.821 240.361,376.822 241.113 M23.502 241.895 C 23.502 242.646,23.538 242.930,23.580 242.525 C 23.622 242.120,23.622 241.504,23.578 241.158 C 23.535 240.811,23.501 241.143,23.502 241.895 M377.017 249.121 C 377.018 249.873,377.053 250.157,377.096 249.752 C 377.138 249.346,377.137 248.731,377.094 248.384 C 377.051 248.038,377.016 248.369,377.017 249.121 M23.306 249.902 C 23.307 250.654,23.342 250.938,23.385 250.533 C 23.427 250.128,23.426 249.512,23.383 249.166 C 23.340 248.819,23.305 249.150,23.306 249.902 M377.211 257.227 C 377.211 257.925,377.246 258.210,377.290 257.861 C 377.333 257.512,377.333 256.941,377.290 256.592 C 377.246 256.243,377.211 256.528,377.211 257.227 M23.109 258.008 C 23.109 258.706,23.145 258.992,23.188 258.643 C 23.231 258.293,23.231 257.722,23.188 257.373 C 23.145 257.024,23.109 257.310,23.109 258.008 M377.408 265.332 C 377.409 266.084,377.444 266.368,377.486 265.962 C 377.529 265.557,377.528 264.942,377.485 264.595 C 377.442 264.249,377.407 264.580,377.408 265.332 M22.914 266.016 C 22.914 266.714,22.950 267.000,22.993 266.650 C 23.036 266.301,23.036 265.730,22.993 265.381 C 22.950 265.032,22.914 265.317,22.914 266.016 M377.603 273.340 C 377.604 274.092,377.639 274.375,377.682 273.970 C 377.724 273.565,377.723 272.950,377.680 272.603 C 377.637 272.256,377.602 272.588,377.603 273.340 M22.720 274.121 C 22.721 274.873,22.757 275.157,22.799 274.752 C 22.841 274.346,22.840 273.731,22.797 273.384 C 22.754 273.038,22.719 273.369,22.720 274.121 M377.798 281.348 C 377.799 282.100,377.835 282.383,377.877 281.978 C 377.919 281.573,377.918 280.958,377.875 280.611 C 377.832 280.264,377.798 280.596,377.798 281.348 M22.525 282.129 C 22.526 282.881,22.561 283.165,22.603 282.759 C 22.646 282.354,22.645 281.739,22.602 281.392 C 22.559 281.045,22.524 281.377,22.525 282.129 M377.994 289.355 C 377.995 290.107,378.030 290.391,378.072 289.986 C 378.115 289.581,378.114 288.965,378.071 288.619 C 378.028 288.272,377.993 288.604,377.994 289.355 M22.330 290.137 C 22.331 290.889,22.366 291.172,22.408 290.767 C 22.450 290.362,22.450 289.747,22.407 289.400 C 22.363 289.053,22.329 289.385,22.330 290.137 M378.189 297.363 C 378.190 298.115,378.225 298.399,378.268 297.994 C 378.310 297.588,378.309 296.973,378.266 296.627 C 378.223 296.280,378.188 296.611,378.189 297.363 M22.134 298.145 C 22.135 298.896,22.171 299.180,22.213 298.775 C 22.255 298.370,22.254 297.754,22.211 297.408 C 22.168 297.061,22.134 297.393,22.134 298.145 M378.383 305.469 C 378.383 306.167,378.418 306.453,378.462 306.104 C 378.505 305.754,378.505 305.183,378.462 304.834 C 378.418 304.485,378.383 304.771,378.383 305.469 M21.939 306.152 C 21.940 306.904,21.975 307.188,22.018 306.783 C 22.060 306.378,22.059 305.762,22.016 305.416 C 21.973 305.069,21.938 305.400,21.939 306.152 M378.580 313.574 C 378.581 314.326,378.616 314.610,378.658 314.205 C 378.700 313.799,378.700 313.184,378.657 312.837 C 378.613 312.491,378.579 312.822,378.580 313.574 M21.744 314.160 C 21.745 314.912,21.780 315.196,21.822 314.791 C 21.865 314.385,21.864 313.770,21.821 313.423 C 21.778 313.077,21.743 313.408,21.744 314.160 M110.889 320.459 C 160.007 320.486,240.383 320.486,289.502 320.459 C 338.621 320.432,298.433 320.410,200.195 320.410 C 101.958 320.410,61.770 320.432,110.889 320.459 " stroke="none" fill="#783634" fill-rule="evenodd"></path><path id="path4" d="M26.585 116.357 C 26.609 117.549,26.695 117.433,26.801 116.064 C 26.837 115.608,26.798 115.234,26.714 115.234 C 26.631 115.234,26.573 115.740,26.585 116.357 M373.585 115.723 C 373.636 115.991,373.712 116.211,373.753 116.211 C 373.794 116.211,373.828 115.991,373.828 115.723 C 373.828 115.454,373.752 115.234,373.660 115.234 C 373.567 115.234,373.534 115.454,373.585 115.723 M373.892 122.949 C 373.893 123.701,373.928 123.985,373.971 123.580 C 374.013 123.174,374.012 122.559,373.969 122.212 C 373.926 121.866,373.891 122.197,373.892 122.949 M26.433 124.023 C 26.433 124.829,26.467 125.159,26.509 124.756 C 26.552 124.353,26.552 123.694,26.509 123.291 C 26.467 122.888,26.433 123.218,26.433 124.023 M374.089 131.055 C 374.089 131.860,374.124 132.190,374.166 131.787 C 374.208 131.384,374.208 130.725,374.166 130.322 C 374.124 129.919,374.089 130.249,374.089 131.055 M26.236 132.129 C 26.237 132.881,26.272 133.165,26.314 132.759 C 26.357 132.354,26.356 131.739,26.313 131.392 C 26.270 131.045,26.235 131.377,26.236 132.129 M374.284 139.063 C 374.284 139.868,374.319 140.198,374.361 139.795 C 374.403 139.392,374.403 138.733,374.361 138.330 C 374.319 137.927,374.284 138.257,374.284 139.063 M26.041 140.137 C 26.042 140.889,26.077 141.172,26.119 140.767 C 26.161 140.362,26.161 139.747,26.118 139.400 C 26.074 139.053,26.040 139.385,26.041 140.137 M374.478 147.168 C 374.479 147.920,374.514 148.204,374.557 147.798 C 374.599 147.393,374.598 146.778,374.555 146.431 C 374.512 146.084,374.477 146.416,374.478 147.168 M25.845 148.145 C 25.846 148.896,25.882 149.180,25.924 148.775 C 25.966 148.370,25.965 147.754,25.922 147.408 C 25.879 147.061,25.844 147.393,25.845 148.145 M374.673 155.176 C 374.674 155.928,374.710 156.211,374.752 155.806 C 374.794 155.401,374.793 154.786,374.750 154.439 C 374.707 154.092,374.673 154.424,374.673 155.176 M25.650 156.152 C 25.651 156.904,25.686 157.188,25.728 156.783 C 25.771 156.378,25.770 155.762,25.727 155.416 C 25.684 155.069,25.649 155.400,25.650 156.152 M374.869 163.184 C 374.870 163.936,374.905 164.219,374.947 163.814 C 374.990 163.409,374.989 162.794,374.946 162.447 C 374.903 162.100,374.868 162.432,374.869 163.184 M25.455 164.160 C 25.456 164.912,25.491 165.196,25.533 164.791 C 25.575 164.385,25.575 163.770,25.532 163.423 C 25.488 163.077,25.454 163.408,25.455 164.160 M375.066 171.289 C 375.066 172.095,375.100 172.424,375.142 172.021 C 375.184 171.619,375.184 170.959,375.142 170.557 C 375.100 170.154,375.066 170.483,375.066 171.289 M25.259 172.168 C 25.260 172.920,25.296 173.204,25.338 172.798 C 25.380 172.393,25.379 171.778,25.336 171.431 C 25.293 171.084,25.259 171.416,25.259 172.168 M375.261 179.297 C 375.261 180.103,375.295 180.432,375.338 180.029 C 375.380 179.626,375.380 178.967,375.338 178.564 C 375.295 178.162,375.261 178.491,375.261 179.297 M25.064 180.176 C 25.065 180.928,25.100 181.211,25.143 180.806 C 25.185 180.401,25.184 179.786,25.141 179.439 C 25.098 179.092,25.063 179.424,25.064 180.176 M375.455 187.402 C 375.456 188.154,375.491 188.438,375.533 188.033 C 375.575 187.628,375.575 187.012,375.532 186.666 C 375.488 186.319,375.454 186.650,375.455 187.402 M24.870 188.281 C 24.870 189.087,24.905 189.417,24.947 189.014 C 24.989 188.611,24.989 187.952,24.947 187.549 C 24.905 187.146,24.870 187.476,24.870 188.281 M375.650 195.410 C 375.651 196.162,375.686 196.446,375.728 196.041 C 375.771 195.635,375.770 195.020,375.727 194.673 C 375.684 194.327,375.649 194.658,375.650 195.410 M24.675 196.289 C 24.675 197.095,24.710 197.424,24.752 197.021 C 24.794 196.619,24.794 195.959,24.752 195.557 C 24.710 195.154,24.675 195.483,24.675 196.289 M375.845 203.418 C 375.846 204.170,375.882 204.454,375.924 204.048 C 375.966 203.643,375.965 203.028,375.922 202.681 C 375.879 202.334,375.844 202.666,375.845 203.418 M24.478 204.395 C 24.479 205.146,24.514 205.430,24.557 205.025 C 24.599 204.620,24.598 204.004,24.555 203.658 C 24.512 203.311,24.477 203.643,24.478 204.395 M376.041 211.426 C 376.042 212.178,376.077 212.461,376.119 212.056 C 376.161 211.651,376.161 211.036,376.118 210.689 C 376.074 210.342,376.040 210.674,376.041 211.426 M24.283 212.402 C 24.284 213.154,24.319 213.438,24.361 213.033 C 24.404 212.628,24.403 212.012,24.360 211.666 C 24.317 211.319,24.282 211.650,24.283 212.402 M376.238 219.531 C 376.238 220.337,376.272 220.667,376.314 220.264 C 376.356 219.861,376.356 219.202,376.314 218.799 C 376.272 218.396,376.238 218.726,376.238 219.531 M24.088 220.410 C 24.088 221.162,24.124 221.446,24.166 221.041 C 24.208 220.635,24.208 220.020,24.164 219.673 C 24.121 219.327,24.087 219.658,24.088 220.410 M376.431 227.637 C 376.432 228.389,376.467 228.672,376.510 228.267 C 376.552 227.862,376.551 227.247,376.508 226.900 C 376.465 226.553,376.430 226.885,376.431 227.637 M23.892 228.418 C 23.893 229.170,23.928 229.454,23.971 229.048 C 24.013 228.643,24.012 228.028,23.969 227.681 C 23.926 227.334,23.891 227.666,23.892 228.418 M376.627 235.645 C 376.627 236.396,376.663 236.680,376.705 236.275 C 376.747 235.870,376.747 235.254,376.703 234.908 C 376.660 234.561,376.626 234.893,376.627 235.645 M23.697 236.426 C 23.698 237.178,23.733 237.461,23.775 237.056 C 23.818 236.651,23.817 236.036,23.774 235.689 C 23.731 235.342,23.696 235.674,23.697 236.426 M376.822 243.652 C 376.823 244.404,376.858 244.688,376.900 244.283 C 376.943 243.878,376.942 243.262,376.899 242.916 C 376.856 242.569,376.821 242.900,376.822 243.652 M23.502 244.434 C 23.502 245.186,23.538 245.469,23.580 245.064 C 23.622 244.659,23.622 244.044,23.578 243.697 C 23.535 243.350,23.501 243.682,23.502 244.434 M377.017 251.660 C 377.018 252.412,377.053 252.696,377.096 252.291 C 377.138 251.885,377.137 251.270,377.094 250.923 C 377.051 250.577,377.016 250.908,377.017 251.660 M23.306 252.441 C 23.307 253.193,23.342 253.477,23.385 253.072 C 23.427 252.667,23.426 252.051,23.383 251.705 C 23.340 251.358,23.305 251.689,23.306 252.441 M377.214 259.766 C 377.214 260.571,377.249 260.901,377.291 260.498 C 377.333 260.095,377.333 259.436,377.291 259.033 C 377.249 258.630,377.214 258.960,377.214 259.766 M23.113 260.547 C 23.113 261.353,23.147 261.682,23.189 261.279 C 23.231 260.876,23.231 260.217,23.189 259.814 C 23.147 259.412,23.113 259.741,23.113 260.547 M377.408 267.871 C 377.409 268.623,377.444 268.907,377.486 268.502 C 377.529 268.096,377.528 267.481,377.485 267.134 C 377.442 266.788,377.407 267.119,377.408 267.871 M22.917 268.555 C 22.917 269.360,22.952 269.690,22.994 269.287 C 23.036 268.884,23.036 268.225,22.994 267.822 C 22.952 267.419,22.917 267.749,22.917 268.555 M377.603 275.879 C 377.604 276.631,377.639 276.915,377.682 276.509 C 377.724 276.104,377.723 275.489,377.680 275.142 C 377.637 274.795,377.602 275.127,377.603 275.879 M22.720 276.660 C 22.721 277.412,22.757 277.696,22.799 277.291 C 22.841 276.885,22.840 276.270,22.797 275.923 C 22.754 275.577,22.719 275.908,22.720 276.660 M377.798 283.887 C 377.799 284.639,377.835 284.922,377.877 284.517 C 377.919 284.112,377.918 283.497,377.875 283.150 C 377.832 282.803,377.798 283.135,377.798 283.887 M22.525 284.668 C 22.526 285.420,22.561 285.704,22.603 285.298 C 22.646 284.893,22.645 284.278,22.602 283.931 C 22.559 283.584,22.524 283.916,22.525 284.668 M377.994 291.895 C 377.995 292.646,378.030 292.930,378.072 292.525 C 378.115 292.120,378.114 291.504,378.071 291.158 C 378.028 290.811,377.993 291.143,377.994 291.895 M22.330 292.676 C 22.331 293.428,22.366 293.711,22.408 293.306 C 22.450 292.901,22.450 292.286,22.407 291.939 C 22.363 291.592,22.329 291.924,22.330 292.676 M378.191 300.000 C 378.191 300.806,378.225 301.135,378.267 300.732 C 378.309 300.330,378.309 299.670,378.267 299.268 C 378.225 298.865,378.191 299.194,378.191 300.000 M22.134 300.684 C 22.135 301.436,22.171 301.719,22.213 301.314 C 22.255 300.909,22.254 300.294,22.211 299.947 C 22.168 299.600,22.134 299.932,22.134 300.684 M378.386 308.008 C 378.386 308.813,378.420 309.143,378.463 308.740 C 378.505 308.337,378.505 307.678,378.463 307.275 C 378.420 306.873,378.386 307.202,378.386 308.008 M21.939 308.691 C 21.940 309.443,21.975 309.727,22.018 309.322 C 22.060 308.917,22.059 308.301,22.016 307.955 C 21.973 307.608,21.938 307.939,21.939 308.691 M378.580 316.113 C 378.581 316.865,378.616 317.149,378.658 316.744 C 378.700 316.338,378.700 315.723,378.657 315.377 C 378.613 315.030,378.579 315.361,378.580 316.113 M21.744 316.699 C 21.745 317.451,21.780 317.735,21.822 317.330 C 21.865 316.924,21.864 316.309,21.821 315.962 C 21.778 315.616,21.743 315.947,21.744 316.699 " stroke="none" fill="#ad3c34" fill-rule="evenodd"></path></g></svg>